<mxfile host="app.diagrams.net" agent="Mozilla/5.0 (Windows NT 10.0; Win64; x64) AppleWebKit/537.36 (KHTML, like Gecko) Chrome/140.0.0.0 Safari/537.36 Edg/140.0.0.0" version="28.2.0">
  <diagram name="ページ1" id="Urd-MJOiSl87KGeLgmYQ">
    <mxGraphModel dx="3050" dy="2483" grid="1" gridSize="10" guides="1" tooltips="1" connect="1" arrows="1" fold="1" page="1" pageScale="1" pageWidth="827" pageHeight="1169" math="0" shadow="0">
      <root>
        <mxCell id="0" />
        <mxCell id="1" parent="0" />
        <mxCell id="xKjXm6XE9f7blF8iUi-o-17" value="フネさん" style="rounded=0;whiteSpace=wrap;html=1;" vertex="1" parent="1">
          <mxGeometry x="400" y="-180" width="120" height="60" as="geometry" />
        </mxCell>
        <mxCell id="xKjXm6XE9f7blF8iUi-o-18" value="&lt;span style=&quot;font-size: 23px;&quot;&gt;乗り物&lt;/span&gt;" style="rounded=0;whiteSpace=wrap;html=1;" vertex="1" parent="1">
          <mxGeometry x="375" y="-370" width="170" height="90" as="geometry" />
        </mxCell>
        <mxCell id="xKjXm6XE9f7blF8iUi-o-19" value="タマ" style="rounded=0;whiteSpace=wrap;html=1;" vertex="1" parent="1">
          <mxGeometry x="570" y="-180" width="120" height="60" as="geometry" />
        </mxCell>
        <mxCell id="xKjXm6XE9f7blF8iUi-o-20" value="花沢" style="rounded=0;whiteSpace=wrap;html=1;" vertex="1" parent="1">
          <mxGeometry x="230" y="-180" width="120" height="60" as="geometry" />
        </mxCell>
        <mxCell id="xKjXm6XE9f7blF8iUi-o-21" value="" style="endArrow=classic;html=1;rounded=0;entryX=0.25;entryY=1;entryDx=0;entryDy=0;" edge="1" parent="1" target="xKjXm6XE9f7blF8iUi-o-18">
          <mxGeometry width="50" height="50" relative="1" as="geometry">
            <mxPoint x="290" y="-180" as="sourcePoint" />
            <mxPoint x="340" y="-230" as="targetPoint" />
          </mxGeometry>
        </mxCell>
        <mxCell id="xKjXm6XE9f7blF8iUi-o-22" value="" style="endArrow=classic;html=1;rounded=0;exitX=0.5;exitY=0;exitDx=0;exitDy=0;entryX=0.5;entryY=1;entryDx=0;entryDy=0;" edge="1" parent="1" source="xKjXm6XE9f7blF8iUi-o-17" target="xKjXm6XE9f7blF8iUi-o-18">
          <mxGeometry width="50" height="50" relative="1" as="geometry">
            <mxPoint x="430" y="-220" as="sourcePoint" />
            <mxPoint x="480" y="-270" as="targetPoint" />
          </mxGeometry>
        </mxCell>
        <mxCell id="xKjXm6XE9f7blF8iUi-o-23" value="" style="endArrow=classic;html=1;rounded=0;exitX=0.5;exitY=0;exitDx=0;exitDy=0;entryX=0.75;entryY=1;entryDx=0;entryDy=0;" edge="1" parent="1" source="xKjXm6XE9f7blF8iUi-o-19" target="xKjXm6XE9f7blF8iUi-o-18">
          <mxGeometry width="50" height="50" relative="1" as="geometry">
            <mxPoint x="430" y="-220" as="sourcePoint" />
            <mxPoint x="480" y="-270" as="targetPoint" />
          </mxGeometry>
        </mxCell>
        <mxCell id="xKjXm6XE9f7blF8iUi-o-24" value="" style="endArrow=classic;html=1;rounded=0;exitX=0.5;exitY=0;exitDx=0;exitDy=0;" edge="1" parent="1" source="xKjXm6XE9f7blF8iUi-o-20" target="xKjXm6XE9f7blF8iUi-o-25">
          <mxGeometry width="50" height="50" relative="1" as="geometry">
            <mxPoint x="270" y="-190" as="sourcePoint" />
            <mxPoint x="320" y="-240" as="targetPoint" />
          </mxGeometry>
        </mxCell>
        <mxCell id="xKjXm6XE9f7blF8iUi-o-25" value="うるさい" style="rounded=0;whiteSpace=wrap;html=1;" vertex="1" parent="1">
          <mxGeometry x="230.0000000000001" y="-340" width="120" height="60" as="geometry" />
        </mxCell>
        <mxCell id="xKjXm6XE9f7blF8iUi-o-26" value="月（ライト）" style="rounded=0;whiteSpace=wrap;html=1;" vertex="1" parent="1">
          <mxGeometry x="930" y="175" width="120" height="60" as="geometry" />
        </mxCell>
        <mxCell id="xKjXm6XE9f7blF8iUi-o-27" value="ハンドル" style="rounded=0;whiteSpace=wrap;html=1;" vertex="1" parent="1">
          <mxGeometry x="680" y="175" width="120" height="60" as="geometry" />
        </mxCell>
        <mxCell id="xKjXm6XE9f7blF8iUi-o-28" value="ボディ" style="rounded=0;whiteSpace=wrap;html=1;" vertex="1" parent="1">
          <mxGeometry x="890" y="35" width="70" height="60" as="geometry" />
        </mxCell>
        <mxCell id="xKjXm6XE9f7blF8iUi-o-29" value="エンジン" style="rounded=0;whiteSpace=wrap;html=1;" vertex="1" parent="1">
          <mxGeometry x="570" y="35" width="120" height="60" as="geometry" />
        </mxCell>
        <mxCell id="xKjXm6XE9f7blF8iUi-o-30" value="&lt;font style=&quot;font-size: 21px;&quot;&gt;車&lt;/font&gt;" style="rounded=0;whiteSpace=wrap;html=1;" vertex="1" parent="1">
          <mxGeometry x="700" y="-90" width="120" height="60" as="geometry" />
        </mxCell>
        <mxCell id="xKjXm6XE9f7blF8iUi-o-32" value="" style="endArrow=diamondThin;endFill=0;endSize=24;html=1;rounded=0;exitX=0.5;exitY=0;exitDx=0;exitDy=0;entryX=0.5;entryY=1;entryDx=0;entryDy=0;" edge="1" parent="1" source="xKjXm6XE9f7blF8iUi-o-26" target="xKjXm6XE9f7blF8iUi-o-28">
          <mxGeometry width="160" relative="1" as="geometry">
            <mxPoint x="820" y="-25" as="sourcePoint" />
            <mxPoint x="980" y="-25" as="targetPoint" />
          </mxGeometry>
        </mxCell>
        <mxCell id="xKjXm6XE9f7blF8iUi-o-33" value="" style="endArrow=diamondThin;endFill=0;endSize=24;html=1;rounded=0;exitX=0.5;exitY=0;exitDx=0;exitDy=0;entryX=0.5;entryY=1;entryDx=0;entryDy=0;" edge="1" parent="1" source="xKjXm6XE9f7blF8iUi-o-27" target="xKjXm6XE9f7blF8iUi-o-28">
          <mxGeometry width="160" relative="1" as="geometry">
            <mxPoint x="1000" y="105" as="sourcePoint" />
            <mxPoint x="1160" y="105" as="targetPoint" />
          </mxGeometry>
        </mxCell>
        <mxCell id="xKjXm6XE9f7blF8iUi-o-34" value="" style="endArrow=diamondThin;endFill=0;endSize=24;html=1;rounded=0;exitX=0.5;exitY=0;exitDx=0;exitDy=0;entryX=0.5;entryY=1;entryDx=0;entryDy=0;" edge="1" parent="1" source="xKjXm6XE9f7blF8iUi-o-28" target="xKjXm6XE9f7blF8iUi-o-30">
          <mxGeometry width="160" relative="1" as="geometry">
            <mxPoint x="930" y="-15" as="sourcePoint" />
            <mxPoint x="1090" y="-15" as="targetPoint" />
          </mxGeometry>
        </mxCell>
        <mxCell id="xKjXm6XE9f7blF8iUi-o-35" value="" style="endArrow=diamondThin;endFill=0;endSize=24;html=1;rounded=0;exitX=0.5;exitY=0;exitDx=0;exitDy=0;entryX=0.5;entryY=1;entryDx=0;entryDy=0;" edge="1" parent="1" source="xKjXm6XE9f7blF8iUi-o-29" target="xKjXm6XE9f7blF8iUi-o-30">
          <mxGeometry width="160" relative="1" as="geometry">
            <mxPoint x="615" y="15" as="sourcePoint" />
            <mxPoint x="775" y="15" as="targetPoint" />
          </mxGeometry>
        </mxCell>
        <mxCell id="xKjXm6XE9f7blF8iUi-o-38" value="利用者" style="rounded=0;whiteSpace=wrap;html=1;" vertex="1" parent="1">
          <mxGeometry x="275" y="785" width="80" height="40" as="geometry" />
        </mxCell>
        <mxCell id="xKjXm6XE9f7blF8iUi-o-68" value="" style="edgeStyle=orthogonalEdgeStyle;rounded=0;orthogonalLoop=1;jettySize=auto;html=1;" edge="1" parent="1" source="xKjXm6XE9f7blF8iUi-o-40" target="xKjXm6XE9f7blF8iUi-o-61">
          <mxGeometry relative="1" as="geometry" />
        </mxCell>
        <mxCell id="xKjXm6XE9f7blF8iUi-o-40" value="図書カード" style="rounded=0;whiteSpace=wrap;html=1;" vertex="1" parent="1">
          <mxGeometry x="275" y="875" width="80" height="40" as="geometry" />
        </mxCell>
        <mxCell id="xKjXm6XE9f7blF8iUi-o-41" value="ID" style="rounded=0;whiteSpace=wrap;html=1;" vertex="1" parent="1">
          <mxGeometry x="275" y="1070" width="80" height="40" as="geometry" />
        </mxCell>
        <mxCell id="xKjXm6XE9f7blF8iUi-o-42" value="" style="endArrow=none;html=1;rounded=0;exitX=0.5;exitY=0;exitDx=0;exitDy=0;entryX=0.5;entryY=1;entryDx=0;entryDy=0;" edge="1" parent="1" source="xKjXm6XE9f7blF8iUi-o-41" target="xKjXm6XE9f7blF8iUi-o-40">
          <mxGeometry width="50" height="50" relative="1" as="geometry">
            <mxPoint x="375" y="915" as="sourcePoint" />
            <mxPoint x="425" y="865" as="targetPoint" />
          </mxGeometry>
        </mxCell>
        <mxCell id="xKjXm6XE9f7blF8iUi-o-43" value="" style="endArrow=none;html=1;rounded=0;entryX=0.5;entryY=1;entryDx=0;entryDy=0;exitX=0.5;exitY=0;exitDx=0;exitDy=0;" edge="1" parent="1" source="xKjXm6XE9f7blF8iUi-o-40" target="xKjXm6XE9f7blF8iUi-o-38">
          <mxGeometry width="50" height="50" relative="1" as="geometry">
            <mxPoint x="290" y="885" as="sourcePoint" />
            <mxPoint x="340" y="835" as="targetPoint" />
          </mxGeometry>
        </mxCell>
        <mxCell id="xKjXm6XE9f7blF8iUi-o-47" value="" style="edgeStyle=orthogonalEdgeStyle;rounded=0;orthogonalLoop=1;jettySize=auto;html=1;" edge="1" parent="1" source="xKjXm6XE9f7blF8iUi-o-45" target="xKjXm6XE9f7blF8iUi-o-40">
          <mxGeometry relative="1" as="geometry">
            <Array as="points">
              <mxPoint x="395" y="960" />
              <mxPoint x="340" y="960" />
            </Array>
          </mxGeometry>
        </mxCell>
        <mxCell id="xKjXm6XE9f7blF8iUi-o-45" value="氏名&lt;div&gt;住所&lt;/div&gt;&lt;div&gt;電話番号&lt;/div&gt;&lt;div&gt;メールアドレス&lt;/div&gt;" style="rounded=0;whiteSpace=wrap;html=1;" vertex="1" parent="1">
          <mxGeometry x="350" y="1070" width="90" height="65" as="geometry" />
        </mxCell>
        <mxCell id="xKjXm6XE9f7blF8iUi-o-46" value="図書" style="rounded=0;whiteSpace=wrap;html=1;" vertex="1" parent="1">
          <mxGeometry x="505" y="785" width="80" height="40" as="geometry" />
        </mxCell>
        <mxCell id="xKjXm6XE9f7blF8iUi-o-48" value="検索　借りる" style="text;html=1;align=center;verticalAlign=middle;whiteSpace=wrap;rounded=0;" vertex="1" parent="1">
          <mxGeometry x="365" y="765" width="105" height="30" as="geometry" />
        </mxCell>
        <mxCell id="xKjXm6XE9f7blF8iUi-o-49" value="" style="endArrow=none;html=1;rounded=0;exitX=1;exitY=0.5;exitDx=0;exitDy=0;entryX=0;entryY=0.5;entryDx=0;entryDy=0;" edge="1" parent="1" source="xKjXm6XE9f7blF8iUi-o-38" target="xKjXm6XE9f7blF8iUi-o-46">
          <mxGeometry width="50" height="50" relative="1" as="geometry">
            <mxPoint x="405" y="875" as="sourcePoint" />
            <mxPoint x="455" y="825" as="targetPoint" />
          </mxGeometry>
        </mxCell>
        <mxCell id="xKjXm6XE9f7blF8iUi-o-50" value="貸し出し予約" style="rounded=0;whiteSpace=wrap;html=1;" vertex="1" parent="1">
          <mxGeometry x="140" y="700" width="80" height="40" as="geometry" />
        </mxCell>
        <mxCell id="xKjXm6XE9f7blF8iUi-o-51" value="貸し出し期限" style="rounded=0;whiteSpace=wrap;html=1;" vertex="1" parent="1">
          <mxGeometry x="60" y="1040" width="80" height="40" as="geometry" />
        </mxCell>
        <mxCell id="xKjXm6XE9f7blF8iUi-o-52" value="" style="endArrow=diamondThin;endFill=1;endSize=24;html=1;rounded=0;entryX=0;entryY=0.25;entryDx=0;entryDy=0;exitX=0.5;exitY=0;exitDx=0;exitDy=0;" edge="1" parent="1" source="xKjXm6XE9f7blF8iUi-o-51" target="xKjXm6XE9f7blF8iUi-o-61">
          <mxGeometry width="160" relative="1" as="geometry">
            <mxPoint x="140" y="1100" as="sourcePoint" />
            <mxPoint x="675" y="1025" as="targetPoint" />
          </mxGeometry>
        </mxCell>
        <mxCell id="xKjXm6XE9f7blF8iUi-o-53" value="著者" style="rounded=0;whiteSpace=wrap;html=1;" vertex="1" parent="1">
          <mxGeometry x="505" y="900" width="80" height="40" as="geometry" />
        </mxCell>
        <mxCell id="xKjXm6XE9f7blF8iUi-o-54" value="書名" style="rounded=0;whiteSpace=wrap;html=1;" vertex="1" parent="1">
          <mxGeometry x="685" y="900" width="80" height="40" as="geometry" />
        </mxCell>
        <mxCell id="xKjXm6XE9f7blF8iUi-o-55" value="" style="endArrow=diamondThin;endFill=1;endSize=24;html=1;rounded=0;entryX=0.5;entryY=1;entryDx=0;entryDy=0;exitX=0.5;exitY=0;exitDx=0;exitDy=0;" edge="1" parent="1" source="xKjXm6XE9f7blF8iUi-o-53" target="xKjXm6XE9f7blF8iUi-o-46">
          <mxGeometry width="160" relative="1" as="geometry">
            <mxPoint x="415" y="974.47" as="sourcePoint" />
            <mxPoint x="575" y="974.47" as="targetPoint" />
          </mxGeometry>
        </mxCell>
        <mxCell id="xKjXm6XE9f7blF8iUi-o-56" value="" style="endArrow=diamondThin;endFill=1;endSize=24;html=1;rounded=0;entryX=1;entryY=0.5;entryDx=0;entryDy=0;exitX=0.5;exitY=0;exitDx=0;exitDy=0;" edge="1" parent="1" source="xKjXm6XE9f7blF8iUi-o-54" target="xKjXm6XE9f7blF8iUi-o-46">
          <mxGeometry width="160" relative="1" as="geometry">
            <mxPoint x="385" y="915" as="sourcePoint" />
            <mxPoint x="545" y="915" as="targetPoint" />
          </mxGeometry>
        </mxCell>
        <mxCell id="xKjXm6XE9f7blF8iUi-o-57" value="貸し出し中か" style="rounded=0;whiteSpace=wrap;html=1;" vertex="1" parent="1">
          <mxGeometry x="765" y="900" width="80" height="40" as="geometry" />
        </mxCell>
        <mxCell id="xKjXm6XE9f7blF8iUi-o-58" value="何処の棚にあるか" style="rounded=0;whiteSpace=wrap;html=1;" vertex="1" parent="1">
          <mxGeometry x="585" y="900" width="100" height="40" as="geometry" />
        </mxCell>
        <mxCell id="xKjXm6XE9f7blF8iUi-o-59" value="" style="endArrow=diamondThin;endFill=1;endSize=24;html=1;rounded=0;entryX=1;entryY=0.25;entryDx=0;entryDy=0;exitX=0;exitY=0.5;exitDx=0;exitDy=0;" edge="1" parent="1" source="xKjXm6XE9f7blF8iUi-o-57" target="xKjXm6XE9f7blF8iUi-o-46">
          <mxGeometry width="160" relative="1" as="geometry">
            <mxPoint x="725" y="795" as="sourcePoint" />
            <mxPoint x="645" y="775" as="targetPoint" />
          </mxGeometry>
        </mxCell>
        <mxCell id="xKjXm6XE9f7blF8iUi-o-60" value="" style="endArrow=diamondThin;endFill=1;endSize=24;html=1;rounded=0;entryX=0.5;entryY=1;entryDx=0;entryDy=0;exitX=0.5;exitY=0;exitDx=0;exitDy=0;" edge="1" parent="1" source="xKjXm6XE9f7blF8iUi-o-58" target="xKjXm6XE9f7blF8iUi-o-46">
          <mxGeometry width="160" relative="1" as="geometry">
            <mxPoint x="685" y="885" as="sourcePoint" />
            <mxPoint x="605" y="865" as="targetPoint" />
          </mxGeometry>
        </mxCell>
        <mxCell id="xKjXm6XE9f7blF8iUi-o-61" value="借りている本" style="rounded=0;whiteSpace=wrap;html=1;" vertex="1" parent="1">
          <mxGeometry x="130" y="875" width="80" height="40" as="geometry" />
        </mxCell>
        <mxCell id="xKjXm6XE9f7blF8iUi-o-62" value="" style="endArrow=diamondThin;endFill=1;endSize=24;html=1;rounded=0;exitX=1;exitY=0.5;exitDx=0;exitDy=0;entryX=0;entryY=0.5;entryDx=0;entryDy=0;" edge="1" parent="1" source="xKjXm6XE9f7blF8iUi-o-61" target="xKjXm6XE9f7blF8iUi-o-40">
          <mxGeometry width="160" relative="1" as="geometry">
            <mxPoint x="270" y="850" as="sourcePoint" />
            <mxPoint x="430" y="850" as="targetPoint" />
          </mxGeometry>
        </mxCell>
        <mxCell id="xKjXm6XE9f7blF8iUi-o-63" value="著者" style="rounded=0;whiteSpace=wrap;html=1;" vertex="1" parent="1">
          <mxGeometry x="-100" y="1040" width="80" height="40" as="geometry" />
        </mxCell>
        <mxCell id="xKjXm6XE9f7blF8iUi-o-64" value="著者" style="rounded=0;whiteSpace=wrap;html=1;" vertex="1" parent="1">
          <mxGeometry x="-20" y="1040" width="80" height="40" as="geometry" />
        </mxCell>
        <mxCell id="xKjXm6XE9f7blF8iUi-o-67" value="" style="endArrow=diamondThin;endFill=1;endSize=24;html=1;rounded=0;exitX=1;exitY=0.5;exitDx=0;exitDy=0;entryX=0;entryY=0.5;entryDx=0;entryDy=0;" edge="1" parent="1" source="xKjXm6XE9f7blF8iUi-o-63" target="xKjXm6XE9f7blF8iUi-o-61">
          <mxGeometry width="160" relative="1" as="geometry">
            <mxPoint x="30" y="823.95" as="sourcePoint" />
            <mxPoint x="190" y="823.95" as="targetPoint" />
          </mxGeometry>
        </mxCell>
        <mxCell id="xKjXm6XE9f7blF8iUi-o-69" value="" style="endArrow=diamondThin;endFill=1;endSize=24;html=1;rounded=0;exitX=1;exitY=0.5;exitDx=0;exitDy=0;entryX=0;entryY=0.5;entryDx=0;entryDy=0;" edge="1" parent="1" source="xKjXm6XE9f7blF8iUi-o-64" target="xKjXm6XE9f7blF8iUi-o-61">
          <mxGeometry width="160" relative="1" as="geometry">
            <mxPoint x="-20" y="844.47" as="sourcePoint" />
            <mxPoint x="140" y="844.47" as="targetPoint" />
          </mxGeometry>
        </mxCell>
        <mxCell id="xKjXm6XE9f7blF8iUi-o-73" value="" style="edgeStyle=orthogonalEdgeStyle;rounded=0;orthogonalLoop=1;jettySize=auto;html=1;exitX=1;exitY=0.5;exitDx=0;exitDy=0;" edge="1" parent="1" source="xKjXm6XE9f7blF8iUi-o-72" target="xKjXm6XE9f7blF8iUi-o-50">
          <mxGeometry relative="1" as="geometry" />
        </mxCell>
        <mxCell id="xKjXm6XE9f7blF8iUi-o-72" value="必要事項" style="rounded=0;whiteSpace=wrap;html=1;" vertex="1" parent="1">
          <mxGeometry x="-20" y="700" width="80" height="40" as="geometry" />
        </mxCell>
        <mxCell id="xKjXm6XE9f7blF8iUi-o-74" value="" style="endArrow=none;html=1;rounded=0;entryX=0.5;entryY=0;entryDx=0;entryDy=0;exitX=0.5;exitY=1;exitDx=0;exitDy=0;" edge="1" parent="1" source="xKjXm6XE9f7blF8iUi-o-50" target="xKjXm6XE9f7blF8iUi-o-38">
          <mxGeometry width="50" height="50" relative="1" as="geometry">
            <mxPoint x="100" y="960" as="sourcePoint" />
            <mxPoint x="240" y="800" as="targetPoint" />
          </mxGeometry>
        </mxCell>
      </root>
    </mxGraphModel>
  </diagram>
</mxfile>
